<?xml version="1.0" encoding="UTF-8"?>
<svg id="Layer_1" xmlns="http://www.w3.org/2000/svg" version="1.1" viewBox="0 0 127.29 146.67">
  <!-- Generator: Adobe Illustrator 29.8.1, SVG Export Plug-In . SVG Version: 2.1.1 Build 2)  -->
  <defs>
    <style>
      .st0 {
        fill: none;
        stroke: #a9542d;
        stroke-linecap: round;
        stroke-linejoin: round;
        stroke-width: 2px;
      }

      .st1 {
        fill: #fbf8f6;
      }
    </style>
  </defs>
  <path class="st1" d="M63.65,13.78h0c28.53,0,51.69,23.16,51.69,51.69v57.22c0,5.63-4.57,10.21-10.21,10.21H22.16c-5.63,0-10.21-4.57-10.21-10.21v-57.22c0-28.53,23.16-51.69,51.69-51.69Z"/>
  <g>
    <circle class="st0" cx="63.65" cy="74.66" r="7.59"/>
    <path class="st0" d="M59.02,80.99l-5.43,2.95c-2.99,1.63-6.27,2.68-9.65,3.1l-4.46.55c-1.96.2-3.46,1.86-3.46,3.83,0,2.24,1.9,4.01,4.14,3.84l13.37-1.15.94,9.21h18.33l.94-9.21,13.37,1.15c2.23.17,4.14-1.6,4.14-3.84,0-1.97-1.49-3.63-3.46-3.83l-4.46-.55c-3.38-.42-6.65-1.47-9.65-3.1l-5.43-2.95"/>
    <rect class="st0" x="43.65" y="103.32" width="40" height="8.64" rx="4.32" ry="4.32"/>
    <path class="st0" d="M86.29,87.46c.75-2.31,1.15-4.77,1.15-7.32,0-13.14-10.65-23.79-23.79-23.79s-23.79,10.65-23.79,23.79c0,2.57.41,5.04,1.16,7.36"/>
    <g>
      <line class="st0" x1="28.34" y1="80.09" x2="32.45" y2="80.09"/>
      <line class="st0" x1="98.95" y1="81.89" x2="94.84" y2="81.89"/>
      <line class="st0" x1="97.13" y1="69.76" x2="93.27" y2="71.16"/>
      <line class="st0" x1="91.27" y1="58.98" x2="88.12" y2="61.63"/>
      <line class="st0" x1="82.08" y1="50.86" x2="80.02" y2="54.42"/>
      <line class="st0" x1="70.66" y1="46.38" x2="69.95" y2="50.43"/>
      <line class="st0" x1="58.4" y1="46.07" x2="59.11" y2="50.11"/>
      <line class="st0" x1="46.77" y1="49.97" x2="48.83" y2="53.53"/>
      <line class="st0" x1="37.18" y1="57.61" x2="40.33" y2="60.25"/>
      <line class="st0" x1="30.78" y1="68.07" x2="34.64" y2="69.48"/>
    </g>
  </g>
</svg>