<?xml version="1.0" encoding="UTF-8"?>
<svg id="Layer_1" xmlns="http://www.w3.org/2000/svg" version="1.1" xmlns:xlink="http://www.w3.org/1999/xlink" viewBox="0 0 127.29 146.67">
  <!-- Generator: Adobe Illustrator 29.8.1, SVG Export Plug-In . SVG Version: 2.1.1 Build 2)  -->
  <defs>
    <style>
      .st0, .st1, .st2 {
        fill: none;
      }

      .st0, .st2 {
        stroke: #a9542d;
        stroke-linecap: round;
        stroke-linejoin: round;
        stroke-width: 2px;
      }

      .st3 {
        fill: #fbf8f6;
      }

      .st2 {
        isolation: isolate;
      }

      .st2, .st4 {
        opacity: .14;
      }

      .st5 {
        clip-path: url(#clippath);
      }
    </style>
    <clipPath id="clippath">
      <path class="st1" d="M63.65,15h0c28.02,0,50.77,22.75,50.77,50.77v56.83c0,5.19-4.21,9.4-9.4,9.4H22.27c-5.19,0-9.4-4.21-9.4-9.4v-57.46c0-27.69,22.45-50.14,50.14-50.14h.64Z"/>
    </clipPath>
  </defs>
  <g>
    <path class="st3" d="M63.65,13.77h0c28.53,0,51.69,23.16,51.69,51.69v57.22c0,5.63-4.57,10.21-10.21,10.21H22.16c-5.63,0-10.21-4.57-10.21-10.21v-57.22c0-28.53,23.16-51.69,51.69-51.69h.01Z"/>
    <g class="st5">
      <g class="st4">
        <line class="st0" x1="63.65" y1="-4.01" x2="63.65" y2="39.98"/>
        <line class="st0" x1="35.47" y1=".96" x2="50.86" y2="43.24"/>
        <line class="st0" x1="10.68" y1="15.26" x2="34.59" y2="43.76"/>
        <line class="st0" x1="-7.72" y1="37.18" x2="18.4" y2="52.26"/>
        <line class="st0" x1="-17.51" y1="64.08" x2="19.13" y2="70.54"/>
        <line class="st0" x1="-17.51" y1="92.7" x2="15.23" y2="86.92"/>
        <line class="st0" x1="-7.72" y1="119.59" x2="24.5" y2="100.99"/>
        <line class="st0" x1="10.67" y1="141.51" x2="34.58" y2="113.02"/>
        <line class="st0" x1="35.45" y1="155.83" x2="48.18" y2="120.87"/>
        <line class="st0" x1="63.64" y1="160.8" x2="63.64" y2="123.6"/>
        <line class="st0" x1="91.82" y1="155.83" x2="79.1" y2="120.87"/>
        <line class="st0" x1="116.61" y1="141.52" x2="92.7" y2="113.02"/>
        <line class="st0" x1="135.01" y1="119.6" x2="107.89" y2="103.94"/>
        <line class="st0" x1="144.8" y1="92.71" x2="110.66" y2="86.69"/>
        <line class="st0" x1="144.8" y1="64.09" x2="108.16" y2="70.55"/>
        <line class="st0" x1="135.01" y1="37.2" x2="102.79" y2="55.8"/>
        <line class="st0" x1="116.62" y1="15.27" x2="86.53" y2="51.13"/>
        <line class="st0" x1="91.84" y1=".96" x2="78.68" y2="37.12"/>
      </g>
    </g>
    <path class="st2" d="M63.65,13.78h0c28.53,0,51.69,23.16,51.69,51.69v57.22c0,5.63-4.57,10.21-10.21,10.21H22.16c-5.63,0-10.21-4.57-10.21-10.21v-57.22c0-28.53,23.16-51.69,51.69-51.69h.01Z"/>
  </g>
  <g>
    <circle class="st0" cx="63.65" cy="74.66" r="7.59"/>
    <path class="st0" d="M59.02,80.99l-5.43,2.95c-2.99,1.63-6.27,2.68-9.65,3.1l-4.46.55c-1.96.2-3.46,1.86-3.46,3.83,0,2.24,1.9,4.01,4.14,3.84l13.37-1.15.94,9.21h18.33l.94-9.21,13.37,1.15c2.23.17,4.14-1.6,4.14-3.84,0-1.97-1.49-3.63-3.46-3.83l-4.46-.55c-3.38-.42-6.65-1.47-9.65-3.1l-5.43-2.95"/>
    <path class="st0" d="M47.97,103.32h31.36c2.39,0,4.32,1.93,4.32,4.32h0c0,2.39-1.93,4.32-4.32,4.32h-31.36c-2.39,0-4.32-1.93-4.32-4.32h0c0-2.39,1.93-4.32,4.32-4.32Z"/>
    <path class="st0" d="M86.29,87.46c.75-2.31,1.15-4.77,1.15-7.32,0-13.14-10.65-23.79-23.79-23.79s-23.79,10.65-23.79,23.79c0,2.57.41,5.04,1.16,7.36"/>
    <g>
      <line class="st0" x1="28.34" y1="80.09" x2="32.45" y2="80.09"/>
      <line class="st0" x1="98.95" y1="81.89" x2="94.84" y2="81.89"/>
      <line class="st0" x1="97.13" y1="69.76" x2="93.27" y2="71.16"/>
      <line class="st0" x1="91.27" y1="58.98" x2="88.12" y2="61.63"/>
      <line class="st0" x1="82.08" y1="50.86" x2="80.02" y2="54.42"/>
      <line class="st0" x1="70.66" y1="46.38" x2="69.95" y2="50.43"/>
      <line class="st0" x1="58.4" y1="46.07" x2="59.11" y2="50.11"/>
      <line class="st0" x1="46.77" y1="49.97" x2="48.83" y2="53.53"/>
      <line class="st0" x1="37.18" y1="57.61" x2="40.33" y2="60.25"/>
      <line class="st0" x1="30.78" y1="68.07" x2="34.64" y2="69.48"/>
    </g>
  </g>
</svg>