<?xml version="1.0" encoding="UTF-8"?>
<svg id="Layer_1" xmlns="http://www.w3.org/2000/svg" version="1.1" xmlns:xlink="http://www.w3.org/1999/xlink" viewBox="0 0 127.29 146.67">
  <!-- Generator: Adobe Illustrator 29.8.1, SVG Export Plug-In . SVG Version: 2.1.1 Build 2)  -->
  <defs>
    <style>
      .st0, .st1, .st2 {
        opacity: .14;
      }

      .st1, .st3, .st2 {
        fill: none;
      }

      .st3, .st2 {
        stroke: #a9542d;
        stroke-linecap: round;
        stroke-linejoin: round;
        stroke-width: 2px;
      }

      .st4 {
        fill: #fbf8f6;
      }

      .st5 {
        clip-path: url(#clippath);
      }
    </style>
    <clipPath id="clippath">
      <path class="st1" d="M63.65,15h0c28.02,0,50.77,22.75,50.77,50.77v56.83c0,5.19-4.21,9.4-9.4,9.4H22.27c-5.19,0-9.4-4.21-9.4-9.4v-57.46c0-27.69,22.45-50.14,50.14-50.14h.64Z"/>
    </clipPath>
  </defs>
  <g>
    <path class="st4" d="M63.65,13.77h0c28.53,0,51.69,23.16,51.69,51.69v57.22c0,5.63-4.57,10.21-10.21,10.21H22.16c-5.63,0-10.21-4.57-10.21-10.21v-57.22c0-28.53,23.16-51.69,51.69-51.69h.01Z"/>
    <g class="st5">
      <g class="st0">
        <line class="st3" x1="63.65" y1="-4.01" x2="63.65" y2="39.98"/>
        <line class="st3" x1="35.47" y1=".96" x2="50.86" y2="43.24"/>
        <line class="st3" x1="10.68" y1="15.26" x2="34.59" y2="43.76"/>
        <line class="st3" x1="-7.72" y1="37.18" x2="18.4" y2="52.26"/>
        <line class="st3" x1="-17.51" y1="64.08" x2="19.13" y2="70.54"/>
        <line class="st3" x1="-17.51" y1="92.7" x2="15.23" y2="86.92"/>
        <line class="st3" x1="-7.72" y1="119.59" x2="24.5" y2="100.99"/>
        <line class="st3" x1="10.67" y1="141.51" x2="34.58" y2="113.02"/>
        <line class="st3" x1="35.45" y1="155.83" x2="48.18" y2="120.87"/>
        <line class="st3" x1="63.64" y1="160.8" x2="63.64" y2="123.6"/>
        <line class="st3" x1="91.82" y1="155.83" x2="79.1" y2="120.87"/>
        <line class="st3" x1="116.61" y1="141.52" x2="92.7" y2="113.02"/>
        <line class="st3" x1="135.01" y1="119.6" x2="107.89" y2="103.94"/>
        <line class="st3" x1="144.8" y1="92.71" x2="110.66" y2="86.69"/>
        <line class="st3" x1="144.8" y1="64.09" x2="108.16" y2="70.55"/>
        <line class="st3" x1="135.01" y1="37.2" x2="102.79" y2="55.8"/>
        <line class="st3" x1="116.62" y1="15.27" x2="86.53" y2="51.13"/>
        <line class="st3" x1="91.84" y1=".96" x2="75.71" y2="45.27"/>
      </g>
    </g>
    <path class="st2" d="M63.65,13.78h0c28.53,0,51.69,23.16,51.69,51.69v57.22c0,5.63-4.57,10.21-10.21,10.21H22.16c-5.63,0-10.21-4.57-10.21-10.21v-57.22c0-28.53,23.16-51.69,51.69-51.69h.01Z"/>
  </g>
  <g>
    <g>
      <g>
        <g>
          <path class="st3" d="M54.45,63.97c3.99,2.16,8.03,5.16,11.78,8.91,11.97,11.97,16.36,26.97,9.82,33.51-6.54,6.54-21.54,2.14-33.51-9.82-3.75-3.75-6.76-7.81-8.92-11.8"/>
          <path class="st3" d="M46.16,67.29c4.29,2.89,9.13,6.92,13.93,11.72,11.97,11.97,19.11,24.22,15.95,27.38s-15.41-3.99-27.38-15.95c-4.73-4.73-8.71-9.51-11.6-13.75"/>
          <line class="st3" x1="32.72" y1="63.05" x2="75.71" y2="106.05"/>
        </g>
        <g>
          <path class="st3" d="M36.4,78.57c-1.68,7.82-10.13,12.64-10.13,12.64,0,0-5.72-7.86-4.04-15.69s10.13-12.64,10.13-12.64c0,0,5.72,7.86,4.04,15.69Z"/>
          <path class="st3" d="M48.23,66.74c7.82-1.68,12.64-10.13,12.64-10.13,0,0-7.86-5.72-15.69-4.04s-12.64,10.13-12.64,10.13c0,0,7.86,5.72,15.69,4.04Z"/>
        </g>
      </g>
      <line class="st3" x1="32.72" y1="63.05" x2="25.62" y2="55.96"/>
    </g>
    <g>
      <g>
        <g>
          <path class="st3" d="M93.68,92.15c-2.16,4-5.17,8.05-8.93,11.8-11.85,11.85-26.67,16.28-33.3,10-.07-.06-.13-.11-.2-.18s-.12-.13-.18-.2c-2.63-2.77-3.38-6.97-2.5-11.79"/>
          <path class="st3" d="M72.85,71.36c-1.68.9-3.36,1.96-5.04,3.16"/>
          <path class="st3" d="M79.07,97.38c4.53-4.59,8.36-9.2,11.16-13.31"/>
          <path class="st3" d="M65.15,109.23c-6.39,4.39-11.61,6.34-13.7,4.73-.07-.06-.13-.11-.2-.18s-.12-.13-.18-.2c-1.2-1.53-.45-4.77,1.79-8.94"/>
          <path class="st3" d="M72.94,81.03c2.85-2.47,5.62-4.62,8.19-6.35"/>
          <line class="st3" x1="57.86" y1="107.16" x2="51.58" y2="113.44"/>
          <line class="st3" x1="94.58" y1="70.45" x2="76.83" y2="88.2"/>
        </g>
        <g>
          <path class="st3" d="M90.89,85.96c1.68,7.82,10.13,12.64,10.13,12.64,0,0,5.72-7.86,4.04-15.69s-10.13-12.64-10.13-12.64c0,0-5.72,7.86-4.04,15.69Z"/>
          <path class="st3" d="M79.07,74.13c-7.82-1.68-12.64-10.13-12.64-10.13,0,0,7.86-5.72,15.69-4.04s12.64,10.13,12.64,10.13c0,0-7.86,5.72-15.69,4.04Z"/>
        </g>
        <path class="st3" d="M33.62,84.76c2.16,4,5.17,8.05,8.93,11.8,1.94,1.94,3.97,3.7,6.03,5.22,1.42,1.06,2.85,2.01,4.29,2.86,1.68.99,3.35,1.84,5,2.52,2.52,1.07,4.99,1.76,7.29,2.07,4.47.6,8.34-.29,10.9-2.85,2.2-2.19,3.16-5.34,3.02-9-.11-2.82-.88-5.95-2.24-9.18-.98-2.36-2.29-4.77-3.89-7.16-1.47-2.2-3.18-4.39-5.13-6.51-.51-.55-1.04-1.11-1.58-1.65-3.74-3.74-7.79-6.75-11.77-8.91"/>
      </g>
      <line class="st3" x1="94.58" y1="70.45" x2="101.67" y2="63.35"/>
    </g>
  </g>
</svg>