<?xml version="1.0" encoding="UTF-8"?>
<svg id="Layer_1" xmlns="http://www.w3.org/2000/svg" version="1.1" xmlns:xlink="http://www.w3.org/1999/xlink" viewBox="0 0 127.29 146.67">
  <!-- Generator: Adobe Illustrator 29.8.1, SVG Export Plug-In . SVG Version: 2.1.1 Build 2)  -->
  <defs>
    <style>
      .st0, .st1, .st2 {
        opacity: .14;
      }

      .st1, .st3, .st2 {
        fill: none;
      }

      .st3, .st2 {
        stroke: #a9542d;
        stroke-linecap: round;
        stroke-linejoin: round;
        stroke-width: 2px;
      }

      .st4 {
        fill: #fbf8f6;
      }

      .st5 {
        clip-path: url(#clippath);
      }
    </style>
    <clipPath id="clippath">
      <path class="st1" d="M63.65,15h0c28.02,0,50.77,22.75,50.77,50.77v56.83c0,5.19-4.21,9.4-9.4,9.4H22.27c-5.19,0-9.4-4.21-9.4-9.4v-57.46c0-27.69,22.45-50.14,50.14-50.14h.64Z"/>
    </clipPath>
  </defs>
  <path class="st4" d="M63.65,13.77h0c28.53,0,51.69,23.16,51.69,51.69v57.22c0,5.63-4.57,10.21-10.21,10.21H22.16c-5.63,0-10.21-4.57-10.21-10.21v-57.22c0-28.53,23.16-51.69,51.69-51.69h.01Z"/>
  <g class="st5">
    <g class="st0">
      <line class="st3" x1="63.65" y1="-4.01" x2="63.65" y2="39.99"/>
      <line class="st3" x1="35.47" y1=".96" x2="48.19" y2="35.92"/>
      <line class="st3" x1="10.68" y1="15.27" x2="34.59" y2="43.76"/>
      <line class="st3" x1="-7.72" y1="37.19" x2="24.5" y2="55.79"/>
      <line class="st3" x1="-17.51" y1="64.08" x2="19.13" y2="70.54"/>
      <line class="st3" x1="-17.51" y1="92.7" x2="19.13" y2="86.24"/>
      <line class="st3" x1="-7.72" y1="119.59" x2="24.5" y2="100.99"/>
      <line class="st3" x1="10.67" y1="141.52" x2="34.58" y2="113.02"/>
      <line class="st3" x1="35.45" y1="155.83" x2="48.18" y2="120.87"/>
      <line class="st3" x1="63.64" y1="160.8" x2="63.64" y2="123.6"/>
      <line class="st3" x1="91.82" y1="155.83" x2="79.1" y2="120.87"/>
      <line class="st3" x1="116.61" y1="141.53" x2="92.7" y2="113.03"/>
      <line class="st3" x1="135.01" y1="119.6" x2="102.79" y2="101"/>
      <line class="st3" x1="144.8" y1="92.71" x2="108.16" y2="86.25"/>
      <line class="st3" x1="144.8" y1="64.09" x2="108.16" y2="70.55"/>
      <line class="st3" x1="135.01" y1="37.2" x2="102.79" y2="55.8"/>
      <line class="st3" x1="116.62" y1="15.27" x2="92.71" y2="43.77"/>
      <line class="st3" x1="91.84" y1=".96" x2="79.11" y2="35.92"/>
    </g>
  </g>
  <path class="st2" d="M63.65,13.78h0c28.53,0,51.69,23.16,51.69,51.69v57.22c0,5.63-4.57,10.21-10.21,10.21H22.16c-5.63,0-10.21-4.57-10.21-10.21v-57.22c0-28.53,23.16-51.69,51.69-51.69h.01Z"/>
  <g>
    <g>
      <path class="st3" d="M102.51,81.08l-3.46-6.26c.06-.52.1-1.05.12-1.58.01-.32.02-.64.02-.96.03-12.94-10.33-23.8-23.25-24.34-13.91-.59-25.36,10.51-25.36,24.28,0,5.84,2.06,11.19,5.48,15.38,2.16,2.64,3.14,6.05,2.68,9.43l-1.9,13.81c-.16,1.14.73,2.15,1.88,2.15h21.04c1.05,0,1.89-.85,1.89-1.89l.63-8.64c.12-1.72,1.61-3.01,3.33-2.9l8.93.57c1.09.12,2.04-.72,2.07-1.81l.21-7.87,1.72-1.72-.1-2.92,3.15-1.63c1.13-.58,1.55-1.98.94-3.09h-.02Z"/>
      <path class="st3" d="M85.24,74.41c2.05,2.05,5.38,2.05,7.43,0"/>
    </g>
    <g>
      <path class="st3" d="M24.78,81.06l3.46-6.26c-.06-.52-.1-1.05-.12-1.58-.01-.32-.02-.64-.02-.96-.03-12.93,10.32-23.78,23.24-24.33,13.9-.59,25.35,10.5,25.35,24.27,0,5.83-2.06,11.18-5.48,15.37-2.16,2.64-3.14,6.04-2.68,9.42l1.89,13.8c.16,1.14-.73,2.15-1.87,2.15h-21.03c-1.04,0-1.89-.85-1.89-1.89l-.63-8.64c-.12-1.72-1.61-3.01-3.33-2.9l-8.92.57c-1.09.12-2.04-.72-2.07-1.81l-.21-7.87-1.72-1.72.1-2.92-3.15-1.62c-1.13-.58-1.55-1.98-.94-3.09h.02,0Z"/>
      <path class="st3" d="M42.04,74.4c-2.05,2.05-5.38,2.05-7.43,0"/>
    </g>
  </g>
</svg>