<?xml version="1.0" encoding="UTF-8"?>
<svg id="Layer_1" xmlns="http://www.w3.org/2000/svg" version="1.1" viewBox="0 0 213 242.74">
  <!-- Generator: Adobe Illustrator 29.8.1, SVG Export Plug-In . SVG Version: 2.1.1 Build 2)  -->
  <defs>
    <style>
      .st0 {
        fill: #a9542d;
      }

      .st1 {
        fill: #190000;
      }
    </style>
  </defs>
  <g>
    <g>
      <path class="st1" d="M107.35,47.64v37.3c-.23-.01-.46-.02-.69-.02-.37,0-.74.02-1.11.05v-37.33c0-.5.4-.9.9-.9s.9.4.9.9Z"/>
      <path class="st1" d="M83.61,61.58l10.85,29.81c-.45.52-.89,1.08-1.31,1.65l-11.23-30.85c-.17-.46.07-.98.54-1.15.47-.17.98.07,1.15.53Z"/>
      <path class="st1" d="M74.39,87.36l13.48,16.06c-.23.66-.45,1.33-.65,2.01l-14.2-16.93c-.32-.38-.27-.94.11-1.26.38-.32.94-.27,1.26.11Z"/>
      <path class="st1" d="M85.33,114.13c-.09.64-.17,1.28-.24,1.93l-.85-.47-13.82-7.73-.79-.44-.8-.44.11-.28c.09-.25.28-.44.53-.53l.96-.36,1.03.57,1.03.58,12,6.71.84.47Z"/>
      <path class="st1" d="M84.71,122.23c0,.34,0,.69,0,1.04,0,.26,0,.52,0,.78l-34.82-6.14c-.49-.08-.81-.55-.73-1.04.09-.49.56-.83,1.04-.73l34.51,6.08Z"/>
      <path class="st1" d="M85.02,129.84c.06.6.13,1.2.2,1.79l-25.58,4.51c-.05.01-.11.01-.16.01-.43,0-.8-.31-.88-.74-.08-.49.24-.95.73-1.04l25.69-4.53Z"/>
      <path class="st1" d="M86.28,137.59c.14.61.29,1.22.45,1.81l-36.08,20.83c-.14.08-.3.12-.45.12-.31,0-.61-.16-.78-.45-.25-.43-.1-.98.33-1.22l36.53-21.09Z"/>
      <path class="st1" d="M89.92,148.08l-.6.72-13.99,16.69-.59.69-.59.7c-.36-.48-.83-.88-1.37-1.15l.59-.71.59-.69,14.52-17.31.62-.74c.26.61.54,1.21.82,1.8Z"/>
      <path class="st1" d="M96.42,157.18l-12.03,33.05c-.13.37-.47.59-.84.59-.1,0-.2-.02-.31-.05-.47-.17-.71-.68-.54-1.15l12.32-33.84c.45.5.92.97,1.4,1.41Z"/>
      <path class="st1" d="M106.67,161.6c.23,0,.46,0,.69-.02v13.81c0,.5-.4.9-.9.9s-.9-.4-.9-.9v-13.84c.37.03.73.05,1.11.05Z"/>
      <path class="st1" d="M126.44,181.86c-.1.04-.2.05-.31.05-.37,0-.71-.23-.84-.59l-8.68-23.86c.48-.43.95-.88,1.41-1.37l8.96,24.61c.17.46-.07.98-.54,1.15Z"/>
      <g>
        <path class="st1" d="M132.18,156.23l.6.72c-.58.21-1.07.62-1.37,1.15l-.6-.72-.59-.7-6.35-7.57-.59-.71c.29-.59.57-1.18.84-1.79l.62.73h0s6.87,8.19,6.87,8.19l.6.71Z"/>
        <path class="st1" d="M156.6,186.73c-.17.14-.37.21-.57.21-.26,0-.51-.11-.69-.32l-19.5-23.24h0l-.59-.7-.6-.72c.59-.21,1.07-.62,1.37-1.15l.6.72.59.71,19.5,23.24c.32.37.27.94-.11,1.26Z"/>
      </g>
      <path class="st1" d="M155.48,155.27c-.17.29-.47.45-.78.45-.15,0-.31-.04-.45-.12l-27.71-16c.16-.59.31-1.2.46-1.81l28.15,16.25c.43.25.58.79.33,1.22Z"/>
      <path class="st1" d="M145.25,134.66l.31.11-.36-.06-1.97-.35-14.25-2.5-.87-.16c.07-.59.14-1.19.2-1.79l.88.16,15.77,2.78h.01l3.5.62-3.22,1.19Z"/>
      <path class="st1" d="M162.93,117.93l-34.29,6.05c0-.24,0-.47,0-.71,0-.37,0-.75,0-1.11l33.99-5.99c.48-.09.95.24,1.04.73.09.49-.24.95-.73,1.04Z"/>
      <path class="st1" d="M144.44,106.08l-16.26,9.39c-.08-.65-.16-1.29-.26-1.92l15.62-9.02c.43-.25.98-.1,1.22.33.25.43.1.98-.33,1.22Z"/>
      <path class="st1" d="M139.32,89.21l-.67.79-.66.79-11.33,13.49h0s-.66.79-.66.79c-.21-.67-.43-1.34-.67-1.99l.65-.77,10.96-13.05.61-.73.61-.73.34.12c.24.09.44.29.53.53l.28.77Z"/>
      <path class="st1" d="M127.38,72.11l-7.48,20.55c-.43-.57-.87-1.1-1.32-1.61l7.11-19.55c.17-.46.68-.7,1.15-.53s.71.68.54,1.15Z"/>
    </g>
    <g>
      <path class="st0" d="M76.88,104s-.06-.07-.12-.09l-6.98-2.59-2.59-6.98c-.02-.06-.05-.1-.09-.12-.09-.06-.22-.06-.31,0-.04.02-.07.07-.09.12l-2.59,6.98-6.98,2.59c-.06.02-.09.05-.12.09-.06.09-.06.22,0,.31.03.04.07.07.12.09l6.98,2.59,2.59,6.98s.06.09.09.12c.09.06.22.06.31,0,.04-.03.07-.07.09-.12l2.44-6.57.15-.41,1.68-.62,5.3-1.96s.09-.05.12-.09c.07-.09.07-.22,0-.32ZM70.43,105.8l-.96.36c-.25.09-.44.28-.53.53l-.11.28-1.89,5.1-1.99-5.38c-.09-.25-.29-.44-.53-.53l-5.38-1.99,5.38-1.99c.24-.09.44-.29.53-.53l1.94-5.5,2.04,5.5c.09.24.28.44.53.53l5.38,1.99-4.42,1.63Z"/>
      <path class="st0" d="M76.88,104c-.06-.64-.46-1.17-1.07-1.4l-5.33-1.98-1.98-5.33c-.22-.6-.77-1.02-1.4-1.07-.05-.01-.11-.01-.16-.01s-.1,0-.15.01c-.64.05-1.18.47-1.4,1.07l-1.98,5.33-5.33,1.98c-.61.22-1.02.77-1.07,1.4-.01.05-.01.11-.01.16s0,.1.01.15c.05.64.46,1.18,1.07,1.4l5.33,1.98,1.98,5.33c.22.61.77,1.02,1.4,1.07.05.01.1.01.15.01s.11,0,.16-.01c.64-.05,1.18-.46,1.4-1.07l1.92-5.18.06-.16,2.01-.74,3.32-1.23c.6-.22,1.01-.76,1.07-1.4.01-.05.01-.1.01-.16s0-.11-.01-.16ZM66.95,112.06l-1.99-5.38c-.09-.25-.29-.44-.53-.53l-5.38-1.99,5.38-1.99c.24-.09.44-.29.53-.53l1.94-5.5,2.04,5.5c.09.24.28.44.53.53l5.38,1.99-4.42,1.63-.96.36c-.25.09-.44.28-.53.53l-.11.28-1.89,5.1Z"/>
    </g>
    <g>
      <path class="st0" d="M155.26,135.91l-1.98.74c-.29.11-.53.34-.64.64l-.73,1.97c-.44,1.17-2.08,1.17-2.52,0l-.73-1.97c-.11-.3-.34-.53-.64-.64l-1.98-.74c-.57-.21-.85-.7-.87-1.2-.03-.54.26-1.08.87-1.31l.66-.24,1.31-.49c.29-.11.53-.34.64-.64l.73-1.98c.21-.55.69-.85,1.19-.87l-1.25,3.61c-.09.25-.29.44-.53.53l-.34.13h0l-3.22,1.19.31.11h.02s3.24,1.2,3.24,1.2c.24.09.44.29.53.53l1.31,3.56,1.31-3.56c.09-.24.29-.44.53-.53l3.56-1.31-3.56-1.32c-.24-.09-.44-.28-.53-.53l-1.33-3.62c.52,0,1.06.28,1.28.87l.73,1.98c.11.29.34.52.64.64l1.98.73c1.17.43,1.17,2.08,0,2.51Z"/>
      <path class="st0" d="M157.03,133.1l-3.51-1.3-1.3-3.51c-.24-.65-.85-1.08-1.56-1.08s-1.31.43-1.56,1.08l-1.3,3.51-2.83,1.05h-.01l-.67.26c-.56.21-.95.69-1.06,1.26-.02.1-.02.2-.02.3,0,.7.43,1.31,1.08,1.55l3.52,1.3,1.3,3.51c.25.66.85,1.08,1.56,1.08s1.31-.42,1.56-1.08l1.3-3.52,3.51-1.3c.65-.24,1.08-.85,1.08-1.55s-.43-1.31-1.08-1.56ZM150.62,129.13l.02.06,1.33,3.62c.09.25.29.44.53.53l3.56,1.32-3.56,1.31c-.24.09-.44.29-.53.53l-1.31,3.56-1.31-3.56c-.09-.24-.29-.44-.53-.53l-3.24-1.2h-.01s0,0,0,0l-.31-.11,3.22-1.19h0l.34-.13c.24-.09.44-.28.53-.53l1.25-3.61.02-.07Z"/>
    </g>
    <g>
      <path class="st0" d="M144.43,87.96l-1.67.62c-.3.11-.53.34-.64.64l-.62,1.67c-.43,1.17-2.08,1.17-2.52,0l-.33-.89-.29-.78c-.11-.3-.34-.53-.64-.64l-.17-.07-1.5-.55c-1.17-.43-1.17-2.08,0-2.52l1.67-.62c.29-.11.53-.34.64-.64l.62-1.67c.21-.55.7-.85,1.19-.87l-1.13,3.31c-.09.24-.29.44-.53.52l-3.26,1.21,2.92,1.08.34.12c.24.09.44.29.53.53l.28.77.92,2.5,1.21-3.26c.09-.24.29-.44.53-.53l3.26-1.21-3.26-1.21c-.24-.09-.44-.28-.53-.52l-1.23-3.32c.53,0,1.06.28,1.28.87l.62,1.67c.11.29.34.53.64.64l1.67.62c1.17.44,1.17,2.09,0,2.52Z"/>
      <path class="st0" d="M146.21,85.15l-3.22-1.19-1.19-3.22c-.24-.66-.85-1.08-1.56-1.08s-1.31.43-1.55,1.08l-1.19,3.22-3.22,1.19c-.65.24-1.08.85-1.08,1.55s.43,1.31,1.08,1.56l2.67.98.55.21.49,1.33.7,1.89c.24.65.85,1.08,1.55,1.08s1.31-.43,1.56-1.08l1.19-3.22,3.22-1.19c.65-.24,1.08-.85,1.08-1.56s-.43-1.31-1.08-1.55ZM140.2,81.58l.02.07,1.23,3.32c.09.24.29.44.53.52l3.26,1.21-3.26,1.21c-.24.09-.44.29-.53.53l-1.21,3.26-.92-2.5-.28-.77c-.09-.24-.29-.44-.53-.53l-.34-.12-2.92-1.08,3.26-1.21c.24-.09.44-.28.53-.52l1.13-3.31.02-.07Z"/>
    </g>
    <g>
      <path class="st0" d="M74.73,166.17c-.37-.47-.84-.85-1.36-1.15-.69-.38-1.48-.6-2.33-.6-2.64,0-4.77,2.14-4.77,4.77s2.14,4.77,4.77,4.77,4.77-2.14,4.77-4.77c0-1.15-.41-2.19-1.08-3.02ZM71.04,173.06c-2.14,0-3.88-1.74-3.88-3.88s1.74-3.88,3.88-3.88c.62,0,1.22.15,1.74.42.54.27,1.01.67,1.37,1.15.48.65.77,1.45.77,2.31,0,2.14-1.74,3.88-3.88,3.88Z"/>
      <path class="st0" d="M75.32,165.48c-.39-.45-.85-.85-1.36-1.15-.85-.52-1.85-.81-2.92-.81-3.13,0-5.67,2.54-5.67,5.67s2.54,5.67,5.67,5.67,5.67-2.54,5.67-5.67c0-1.42-.52-2.72-1.39-3.71ZM71.04,173.06c-2.14,0-3.88-1.74-3.88-3.88s1.74-3.88,3.88-3.88c.62,0,1.22.15,1.74.42.54.27,1.01.67,1.37,1.15.48.65.77,1.45.77,2.31,0,2.14-1.74,3.88-3.88,3.88Z"/>
    </g>
    <g>
      <path class="st0" d="M133.71,155.88c-.55,0-1.07.12-1.53.35-.55.26-1.03.66-1.38,1.15-.42.59-.67,1.3-.67,2.07,0,1.98,1.6,3.57,3.58,3.57.55,0,1.07-.12,1.53-.35.55-.26,1.03-.66,1.38-1.15.42-.59.67-1.3.67-2.07,0-1.98-1.6-3.58-3.58-3.58ZM134.65,161.96h0c-.29.11-.6.17-.93.17-1.48,0-2.68-1.2-2.68-2.67,0-.49.14-.96.37-1.36.31-.52.79-.93,1.37-1.15h0c.29-.11.6-.17.93-.17,1.48,0,2.68,1.2,2.68,2.68,0,.49-.14.96-.37,1.35-.31.53-.79.94-1.37,1.15Z"/>
      <path class="st0" d="M133.71,154.98c-.77,0-1.5.19-2.13.54-.53.29-1,.69-1.37,1.16-.6.76-.97,1.73-.97,2.78,0,2.46,2,4.47,4.47,4.47.77,0,1.5-.19,2.12-.54h0c.53-.29,1-.68,1.37-1.15.61-.76.97-1.73.97-2.78,0-2.47-2.01-4.47-4.47-4.47ZM136.02,160.8c-.31.53-.79.94-1.37,1.15h0c-.29.11-.6.17-.93.17-1.48,0-2.68-1.2-2.68-2.67,0-.49.14-.96.37-1.36.31-.52.79-.93,1.37-1.15h0c.29-.11.6-.17.93-.17,1.48,0,2.68,1.2,2.68,2.68,0,.49-.14.96-.37,1.35Z"/>
    </g>
    <path class="st1" d="M129.52,121.99c-.04-2.4-.22-4.73-.5-7.01h0c-.07-.65-.17-1.28-.27-1.91-.49-3.1-1.19-6.04-2.08-8.79h0c-.21-.68-.44-1.33-.68-1.98-1.52-4.11-3.47-7.69-5.74-10.58-.43-.55-.88-1.08-1.33-1.58-3.36-3.67-7.31-5.88-11.55-6.09-.16,0-.32-.01-.49-.01h-.41c-.3,0-.6.02-.9.04-4.21.34-8.12,2.65-11.44,6.39-.45.52-.89,1.05-1.32,1.62-2.21,2.9-4.11,6.49-5.58,10.56-.24.65-.46,1.31-.67,1.98-.89,2.82-1.58,5.85-2.06,9.03-.09.63-.17,1.27-.25,1.92-.25,2.11-.39,4.27-.43,6.49,0,.4-.01.8-.01,1.2,0,.21,0,.42,0,.62.02,2.08.13,4.12.33,6.11.06.6.13,1.2.21,1.79.28,2.16.66,4.26,1.14,6.26.14.61.3,1.21.46,1.81.7,2.55,1.55,4.95,2.54,7.16.26.61.54,1.2.84,1.78,1.54,3.08,3.35,5.75,5.38,7.89.46.49.93.95,1.41,1.38,2.85,2.56,6.06,4.12,9.46,4.4.3.02.6.04.9.04.07,0,.13,0,.21,0s.14,0,.21,0c.16,0,.32,0,.49-.01,3.43-.18,6.67-1.66,9.56-4.16.48-.42.95-.86,1.41-1.33,2.07-2.12,3.94-4.79,5.52-7.89.3-.58.59-1.17.86-1.77h0c1.02-2.25,1.9-4.69,2.62-7.28.16-.59.32-1.19.47-1.8.49-2.05.89-4.19,1.18-6.4.08-.59.15-1.19.21-1.79.21-2.04.32-4.12.34-6.25,0-.18,0-.37,0-.55,0-.42,0-.85-.01-1.27ZM111.09,159.87c3.75-4.78,6.24-15.46,7.11-27.19l-.95.96-.99.98c-1.31,14.6-5.05,24.48-8.69,25.91v-17.21l-.9.9-.34.34-.55-.55v16.53c-3.58-1.4-7.25-10.96-8.63-25.15l-1.95-1.95c.92,11.43,3.38,21.77,7.05,26.44-9.5-3.61-16.64-18.65-16.64-36.6s7.15-32.99,16.65-36.6c-3.93,4.99-6.46,16.45-7.22,28.79.3-.16.6-.29.91-.41.3-.12.61-.22.92-.31,1.06-16.15,5.05-27.22,8.92-28.73v30.69c.19.16.37.32.55.51h0c.11-.11.22-.22.34-.32.29-.27.59-.51.9-.73v-30.15c3.88,1.52,7.89,12.69,8.93,28.95.31.11.62.24.93.39.31.15.62.32.92.51-.73-12.5-3.28-24.16-7.25-29.2,9.51,3.61,16.65,18.65,16.65,36.6s-7.15,32.99-16.65,36.6Z"/>
  </g>
  <g>
    <path class="st1" d="M37.83,103.98l-11.87-7.22.63-4.78.81.11c-.05.46-.04.83.02,1.12s.2.53.42.71.53.32.93.43c.41.11.93.2,1.57.28l8.36,1.11c.71.09,1.28.14,1.7.14s.75-.07,1-.2.43-.35.54-.64c.11-.3.21-.69.29-1.19l.81.11-.91,6.91-.81-.11c.05-.5.06-.91.02-1.22-.04-.32-.15-.57-.34-.77s-.48-.35-.86-.46c-.38-.11-.91-.21-1.58-.3l-9.9-1.31-.03.21,13.17,8.08-.06.47-14.81,4.27v.09s9.74,1.29,9.74,1.29c.71.09,1.28.14,1.7.14.42,0,.75-.07,1-.2.25-.13.43-.35.54-.65.11-.3.21-.69.29-1.19l.81.11-.79,5.95-.81-.11c.05-.5.06-.91.02-1.22-.04-.32-.15-.57-.34-.77-.19-.2-.48-.35-.86-.46s-.91-.21-1.58-.3l-8.66-1.15c-.6-.08-1.09-.12-1.49-.12-.4,0-.72.06-.97.18-.25.12-.44.32-.57.59-.13.27-.24.63-.33,1.09l-.81-.11.67-5.1,13.32-3.71v-.09Z"/>
    <path class="st1" d="M44.69,81.43c.64.32,1.16.54,1.56.68.4.13.74.18,1.02.13.28-.05.52-.19.72-.44.2-.24.42-.59.66-1.03l.73.36-3.09,6.25-.73-.36c.21-.46.35-.84.41-1.15s.04-.59-.08-.84c-.12-.25-.34-.49-.67-.71-.33-.23-.8-.49-1.4-.79l-7.83-3.87c-.54-.27-1-.47-1.37-.6s-.7-.18-.97-.15c-.27.03-.51.16-.73.37-.21.22-.43.52-.66.92l-.73-.36,2.9-5.86.73.36c-.19.42-.3.78-.34,1.07-.04.3.02.56.17.8s.39.47.74.7.81.49,1.39.77l7.56,3.74Z"/>
    <path class="st1" d="M62.64,64.66l-16.82-1.79-.06.06,6.69,6.3c.52.49.95.86,1.29,1.11.34.25.64.4.91.44s.53,0,.77-.16c.25-.15.53-.39.85-.72l.6.56-3.97,4.22-.6-.56c.33-.37.58-.7.73-.98s.21-.56.17-.83c-.04-.27-.18-.56-.43-.88-.25-.31-.62-.7-1.11-1.16l-6.36-5.99c-.44-.41-.82-.74-1.14-.97-.32-.23-.62-.37-.89-.42s-.54,0-.8.15c-.26.15-.57.38-.9.69l-.6-.56,2.92-3.1,15.58,1.75.06-.06-6.18-5.81c-.51-.48-.94-.85-1.28-1.1-.34-.25-.65-.4-.92-.45-.27-.05-.53,0-.77.16s-.53.39-.85.72l-.6-.56,3.97-4.22.6.56c-.33.38-.58.7-.73.98-.15.28-.21.56-.17.83.04.27.18.57.44.88.25.32.62.7,1.1,1.15l9.37,8.82-.88.94Z"/>
    <path class="st1" d="M70.51,57.85l-.35-.74c.49-.25.87-.48,1.14-.68.28-.2.46-.43.55-.67.09-.24.1-.52.02-.82-.08-.3-.23-.69-.45-1.16l-4.35-9.04c-.22-.45-.42-.81-.59-1.06-.18-.26-.38-.43-.59-.53-.21-.1-.46-.11-.75-.05-.29.07-.64.19-1.07.36l-.36-.74,6.81-3.27c1.16-.56,2.33-.88,3.51-.97,1.18-.09,2.29.04,3.33.38,1.05.34,2,.89,2.85,1.64.85.75,1.55,1.68,2.08,2.8.51,1.06.79,2.12.84,3.19.05,1.06-.11,2.08-.49,3.04-.37.96-.95,1.84-1.72,2.65-.77.81-1.72,1.49-2.85,2.02l-7.58,3.65ZM68.48,41.6c-.22.11-.28.27-.17.49l5.04,10.49c.71,1.47,2.03,1.75,3.95.82,1.77-.85,2.88-2.03,3.31-3.54.44-1.51.16-3.28-.82-5.33-.52-1.07-1.11-1.97-1.77-2.68-.66-.72-1.38-1.25-2.14-1.6-.77-.35-1.56-.51-2.4-.5-.83.02-1.68.24-2.55.65l-2.46,1.18Z"/>
    <path class="st1" d="M128.29,50.86l.35-.74c.51.23.93.39,1.27.47.33.08.62.08.86,0s.45-.24.65-.5c.19-.26.4-.61.62-1.06l4.35-9.04c.22-.45.37-.83.46-1.13.09-.3.1-.56.05-.79-.06-.23-.2-.43-.43-.61-.23-.18-.55-.39-.95-.61l.36-.74,5.8,2.79c1.75.84,2.95,1.8,3.63,2.89.67,1.09.74,2.19.2,3.32-.41.85-1.01,1.42-1.81,1.71-.8.29-1.86.32-3.19.11l-.04.08c.38.23.71.44.98.64.27.2.51.38.71.57.2.18.37.37.52.57s.29.41.42.63c.76,1.37.84,2.67.25,3.9-.33.68-.82,1.23-1.49,1.64-.66.4-1.42.61-2.27.62-.28.01-.55,0-.81-.05-.27-.04-.57-.11-.9-.22s-.71-.25-1.12-.42c-.42-.18-.9-.4-1.46-.67l-6.98-3.36ZM135.73,53.41c2.34,1.12,3.99.68,4.96-1.32.7-1.46.59-2.77-.33-3.93-.16-.19-.33-.36-.49-.52s-.37-.32-.61-.47c-.24-.16-.54-.33-.89-.51-.35-.18-.78-.4-1.3-.65l-.87-.42-2.08,4.32c-.38.79-.44,1.46-.2,2,.25.54.85,1.04,1.81,1.5ZM137.75,45.14c.4.19.74.35,1.02.47.28.12.52.21.73.27.21.06.4.1.58.11.18.01.37,0,.57-.02.54-.06.98-.23,1.33-.51.35-.28.66-.71.94-1.29.49-1.02.59-1.88.31-2.56-.28-.68-.96-1.28-2.02-1.79l-1.49-.72c-.22-.11-.38-.05-.49.17l-2.57,5.35,1.09.52Z"/>
    <path class="st1" d="M166.02,56.15c.88.91,1.53,1.91,1.97,3.01.44,1.09.65,2.2.65,3.32,0,1.12-.22,2.2-.66,3.26-.44,1.06-1.09,2.01-1.97,2.85-.84.81-1.79,1.39-2.84,1.76-1.06.37-2.14.53-3.24.47-1.1-.06-2.19-.33-3.26-.81-1.07-.48-2.04-1.17-2.91-2.07-.87-.9-1.52-1.89-1.96-2.98-.44-1.09-.67-2.19-.68-3.29-.01-1.1.18-2.17.6-3.22.41-1.04,1.04-1.97,1.87-2.77.88-.84,1.85-1.47,2.93-1.86,1.07-.4,2.17-.57,3.28-.53,1.12.04,2.21.3,3.29.78,1.08.48,2.05,1.17,2.93,2.08ZM154.62,67.12c.66.68,1.36,1.18,2.12,1.5s1.55.45,2.37.41c.82-.04,1.64-.26,2.48-.67.83-.41,1.64-.99,2.43-1.74.83-.8,1.47-1.62,1.94-2.47.47-.85.75-1.69.85-2.52.1-.84.02-1.65-.26-2.44-.27-.79-.74-1.53-1.4-2.21-.66-.68-1.37-1.18-2.16-1.48-.78-.3-1.59-.42-2.43-.35-.84.07-1.69.32-2.56.76-.87.43-1.71,1.05-2.54,1.85-.79.76-1.4,1.54-1.84,2.36-.44.82-.69,1.63-.77,2.44-.08.81.03,1.6.32,2.38.29.78.76,1.51,1.42,2.19Z"/>
    <path class="st1" d="M163.88,80.03l.75-.32c.22.5.43.89.62,1.18.19.29.4.48.64.58.24.1.51.12.82.06.31-.06.7-.19,1.18-.39l9.26-3.86c.46-.19.83-.37,1.09-.54.26-.17.45-.35.56-.56.11-.21.14-.46.09-.75-.05-.29-.15-.65-.3-1.09l.75-.31,2.91,6.97c.5,1.19.76,2.38.78,3.56.03,1.18-.16,2.28-.55,3.31-.4,1.03-.99,1.95-1.79,2.76s-1.76,1.46-2.9,1.93c-1.09.45-2.16.68-3.23.67-1.07,0-2.07-.22-3.01-.64-.94-.42-1.79-1.04-2.56-1.86-.77-.81-1.39-1.8-1.87-2.95l-3.24-7.77ZM180.21,78.86c-.09-.23-.25-.29-.48-.2l-10.74,4.48c-1.51.63-1.85,1.93-1.03,3.9.76,1.81,1.88,2.98,3.36,3.5,1.48.52,3.27.34,5.36-.54,1.1-.46,2.02-1,2.77-1.62.75-.62,1.32-1.31,1.71-2.05.39-.74.6-1.53.62-2.37.02-.84-.15-1.7-.52-2.58l-1.05-2.52Z"/>
    <path class="st1" d="M185.66,102.73c.36-.24.65-.46.87-.66s.4-.4.53-.61c.13-.2.21-.41.25-.63.04-.22.05-.48.03-.78l.82-.05.43,6.77-.82.05c-.05-.72-.13-1.22-.26-1.5-.13-.29-.32-.42-.6-.4-.3.02-.72.21-1.26.58l-5.48,3.69v.09s4.24,2.17,4.24,2.17c.8.41,1.43.7,1.89.86.46.17.82.24,1.09.22.27-.02.46-.13.55-.35.09-.21.12-.58.09-1.09l.82-.05.31,4.92-.82.05c-.02-.3-.08-.57-.18-.8-.1-.23-.29-.47-.56-.71-.27-.24-.65-.5-1.13-.78-.48-.28-1.1-.62-1.88-1.01l-5.79-2.95-2.56.16c-.7.04-1.26.11-1.68.18-.42.08-.74.2-.96.39-.22.18-.36.42-.42.74s-.07.73-.04,1.24l-.82.05-.44-6.96.82-.05c.03.51.1.92.2,1.23s.26.53.5.68c.23.15.55.24.96.27s.94.03,1.6-.01l2.62-.17,7.07-4.76Z"/>
  </g>
  <path class="st1" d="M144.66,190.82h-75.99c-10.77,0-19.53-8.76-19.53-19.53v-58.05c0-31.72,25.81-57.52,57.52-57.52s57.52,25.81,57.52,57.52v58.05c0,10.77-8.76,19.53-19.53,19.53ZM106.67,57.51c-30.73,0-55.73,25-55.73,55.73v58.05c0,9.78,7.96,17.73,17.73,17.73h75.99c9.78,0,17.74-7.96,17.74-17.73v-58.05c0-30.73-25-55.73-55.73-55.73Z"/>
  <g>
    <path class="st1" d="M65.1,198.79h.6l.19,4.95h-.8c-.32-1.26-.92-2.25-1.83-2.97-.9-.72-1.99-1.08-3.27-1.08-.88,0-1.66.17-2.35.52-.69.35-1.27.84-1.74,1.49-.47.65-.84,1.43-1.09,2.37-.25.93-.38,1.99-.38,3.16,0,2.31.48,4.09,1.44,5.33.96,1.24,2.35,1.86,4.18,1.86,2.77,0,4.55-1.47,5.34-4.41h.88v5.36h-.75l-.49-1.7c-1.51,1.28-3.33,1.92-5.47,1.92-1.22,0-2.32-.19-3.3-.58-.98-.39-1.82-.94-2.52-1.65-.7-.71-1.23-1.57-1.61-2.6-.38-1.02-.57-2.15-.57-3.4s.2-2.5.6-3.57c.4-1.08.97-2,1.69-2.78.73-.77,1.59-1.37,2.6-1.8,1.01-.42,2.13-.64,3.35-.64.86,0,1.67.12,2.43.37.76.25,1.59.64,2.47,1.18l.39-1.33Z"/>
    <path class="st1" d="M84.49,209.36h-5.75c-.25.59-.45,1.11-.63,1.56-.17.45-.31.84-.42,1.17-.11.33-.18.61-.23.84-.04.23-.06.42-.06.56,0,.4.13.68.39.83s.69.23,1.29.23v.82h-5.23v-.82c.33-.04.61-.1.85-.17.24-.07.44-.17.62-.3.18-.13.34-.3.47-.51s.27-.46.4-.76l5.6-14.01h.92l4.88,12.14c.33.81.62,1.45.86,1.93.24.48.48.84.71,1.09s.48.4.74.47c.27.07.58.11.96.11v.84h-7.02v-.84c.76,0,1.28-.07,1.57-.22s.43-.38.43-.71c0-.14,0-.27-.02-.4-.02-.12-.04-.25-.08-.4-.04-.14-.09-.3-.15-.49-.06-.18-.15-.39-.25-.63l-.88-2.33ZM79.17,208.28h4.91l-2.39-6.35-2.52,6.35Z"/>
    <path class="st1" d="M111.45,198.79h.6l.19,4.95h-.8c-.32-1.26-.92-2.25-1.83-2.97-.9-.72-1.99-1.08-3.27-1.08-.88,0-1.66.17-2.35.52-.69.35-1.27.84-1.74,1.49-.47.65-.84,1.43-1.09,2.37-.25.93-.38,1.99-.38,3.16,0,2.31.48,4.09,1.44,5.33.96,1.24,2.35,1.86,4.18,1.86,2.77,0,4.55-1.47,5.34-4.41h.88v5.36h-.75l-.49-1.7c-1.51,1.28-3.33,1.92-5.47,1.92-1.22,0-2.32-.19-3.3-.58-.98-.39-1.82-.94-2.52-1.65-.7-.71-1.24-1.57-1.62-2.6-.38-1.02-.57-2.15-.57-3.4s.2-2.5.6-3.57c.4-1.08.97-2,1.69-2.78.73-.77,1.59-1.37,2.6-1.8,1.01-.42,2.13-.64,3.35-.64.86,0,1.67.12,2.43.37.76.25,1.59.64,2.47,1.18l.39-1.33Z"/>
    <path class="st1" d="M130.85,209.36h-5.75c-.25.59-.45,1.11-.63,1.56-.17.45-.31.84-.42,1.17-.11.33-.18.61-.23.84-.04.23-.06.42-.06.56,0,.4.13.68.39.83s.69.23,1.29.23v.82h-5.23v-.82c.33-.04.61-.1.85-.17.24-.07.44-.17.62-.3.18-.13.34-.3.47-.51s.27-.46.4-.76l5.6-14.01h.92l4.88,12.14c.33.81.62,1.45.86,1.93.24.48.48.84.71,1.09s.48.4.74.47c.27.07.58.11.96.11v.84h-7.02v-.84c.76,0,1.28-.07,1.57-.22s.43-.38.43-.71c0-.14,0-.27-.02-.4-.02-.12-.04-.25-.08-.4-.04-.14-.09-.3-.15-.49-.06-.18-.15-.39-.25-.63l-.88-2.33ZM125.53,208.28h4.91l-2.39-6.35-2.52,6.35Z"/>
    <path class="st1" d="M152.99,198.58c1.26,0,2.44.22,3.53.67,1.09.44,2.04,1.05,2.84,1.83.8.77,1.44,1.68,1.9,2.73.46,1.05.69,2.18.69,3.4s-.23,2.25-.7,3.27c-.47,1.02-1.1,1.91-1.91,2.66-.8.75-1.75,1.35-2.84,1.79-1.09.44-2.26.66-3.51.66s-2.42-.22-3.51-.66c-1.09-.44-2.04-1.03-2.84-1.79s-1.44-1.64-1.9-2.66c-.47-1.02-.7-2.11-.7-3.27,0-1.22.23-2.35.69-3.4.46-1.05,1.09-1.96,1.89-2.73.8-.78,1.75-1.39,2.84-1.83,1.09-.44,2.27-.67,3.53-.67ZM152.99,214.4c.95,0,1.8-.16,2.55-.5.75-.33,1.4-.8,1.94-1.42.54-.62.95-1.37,1.24-2.25.29-.88.43-1.87.43-2.96,0-1.15-.14-2.19-.43-3.11-.29-.92-.7-1.71-1.23-2.37-.53-.65-1.18-1.15-1.94-1.51-.76-.35-1.61-.53-2.56-.53s-1.8.18-2.56.53c-.76.35-1.41.85-1.94,1.51-.53.65-.94,1.44-1.23,2.37-.29.92-.43,1.96-.43,3.11,0,1.09.14,2.08.43,2.96.29.88.7,1.63,1.23,2.25.53.62,1.18,1.09,1.94,1.42.76.33,1.61.5,2.56.5Z"/>
  </g>
  <path class="st1" d="M144.66,190.82h-75.99c-10.77,0-19.53-8.76-19.53-19.53v-58.05c0-31.72,25.81-57.52,57.52-57.52s57.52,25.81,57.52,57.52v58.05c0,10.77-8.76,19.53-19.53,19.53ZM106.67,57.51c-30.73,0-55.73,25-55.73,55.73v58.05c0,9.78,7.96,17.73,17.73,17.73h75.99c9.78,0,17.74-7.96,17.74-17.73v-58.05c0-30.73-25-55.73-55.73-55.73Z"/>
  <path class="st0" d="M108.79,48.15c-2.84,0-5.67-1.08-7.83-3.24-2.09-2.09-3.24-4.87-3.24-7.83s1.15-5.74,3.24-7.83c.8-.8,1.72-1.48,2.73-2,.35-.18.77-.11,1.05.16.28.28.34.7.16,1.05-1.87,3.6-1.19,7.96,1.68,10.83,2.87,2.87,7.22,3.55,10.83,1.68.35-.18.77-.11,1.05.16s.34.7.16,1.05c-.52,1.01-1.2,1.93-2,2.73-2.16,2.16-4.99,3.24-7.83,3.24ZM102.3,30.45s-.05.05-.07.07c-1.75,1.75-2.72,4.08-2.72,6.56s.97,4.81,2.72,6.56c3.62,3.62,9.5,3.62,13.12,0,.02-.02.05-.05.07-.07-3.6.76-7.4-.31-10.11-3.01-2.71-2.71-3.78-6.51-3.01-10.11Z"/>
  <path class="st1" d="M106.33,145.45c-.23,0-.46-.09-.63-.26l-13.68-13.68c-2-1.99-3.1-4.65-3.1-7.47s1.1-5.48,3.1-7.47c2-2,4.65-3.1,7.47-3.1,2.53,0,4.93.89,6.84,2.51,4.15-3.53,10.4-3.33,14.31.58,4.12,4.12,4.12,10.82,0,14.94l-13.68,13.68c-.18.18-.4.26-.63.26ZM99.49,115.27c-2.25,0-4.49.85-6.21,2.57-1.66,1.66-2.57,3.86-2.57,6.21s.91,4.55,2.57,6.2l13.04,13.04,13.04-13.04c3.42-3.42,3.42-8.99,0-12.41-3.42-3.42-8.99-3.42-12.41,0-.35.35-.92.35-1.27,0-1.71-1.71-3.96-2.57-6.21-2.57Z"/>
  <circle class="st1" cx="128.21" cy="67.21" r="1"/>
  <circle class="st1" cx="149.5" cy="102.12" r="1"/>
  <circle class="st1" cx="154.7" cy="99.12" r="1"/>
  <circle class="st1" cx="70.42" cy="84.02" r="1"/>
  <circle class="st1" cx="54.63" cy="136.11" r="1"/>
  <circle class="st1" cx="106.46" cy="180.05" r="1"/>
  <circle class="st1" cx="158.22" cy="156.88" r="1"/>
  <circle class="st1" cx="106.46" cy="184.76" r="1"/>
  <circle class="st1" cx="127.86" cy="185.76" r="1"/>
  <circle class="st1" cx="67.51" cy="80.56" r="1"/>
</svg>